<svg width="770" height="525" viewBox="0 0 770 525" fill="none" xmlns="http://www.w3.org/2000/svg">
<rect width="770" height="525" fill="#E5E5E5"/>
<path d="M770 0H0V525H770V0Z" fill="#E5E5E5"/>
<path d="M769.411 0H0V524.375H769.411V0Z" fill="white"/>
<path d="M174.757 13.6267C178.52 13.6267 181.57 10.5762 181.57 6.81331C181.57 3.05041 178.52 -3.05176e-05 174.757 -3.05176e-05C170.994 -3.05176e-05 167.944 3.05041 167.944 6.81331C167.944 10.5762 170.994 13.6267 174.757 13.6267Z" fill="#E6E6E6"/>
<path d="M209.246 13.6267C213.009 13.6267 216.059 10.5762 216.059 6.81331C216.059 3.05041 213.009 -3.05176e-05 209.246 -3.05176e-05C205.483 -3.05176e-05 202.433 3.05041 202.433 6.81331C202.433 10.5762 205.483 13.6267 209.246 13.6267Z" fill="#E6E6E6"/>
<path d="M243.735 13.6267C247.498 13.6267 250.549 10.5762 250.549 6.81331C250.549 3.05041 247.498 -3.05176e-05 243.735 -3.05176e-05C239.972 -3.05176e-05 236.922 3.05041 236.922 6.81331C236.922 10.5762 239.972 13.6267 243.735 13.6267Z" fill="#E6E6E6"/>
<path d="M278.224 13.6267C281.987 13.6267 285.038 10.5762 285.038 6.81331C285.038 3.05041 281.987 -3.05176e-05 278.224 -3.05176e-05C274.461 -3.05176e-05 271.411 3.05041 271.411 6.81331C271.411 10.5762 274.461 13.6267 278.224 13.6267Z" fill="#E6E6E6"/>
<path d="M312.713 13.6267C316.476 13.6267 319.527 10.5762 319.527 6.81331C319.527 3.05041 316.476 -3.05176e-05 312.713 -3.05176e-05C308.95 -3.05176e-05 305.9 3.05041 305.9 6.81331C305.9 10.5762 308.95 13.6267 312.713 13.6267Z" fill="#E6E6E6"/>
<path d="M174.757 48.5486C178.52 48.5486 181.57 45.4982 181.57 41.7353C181.57 37.9724 178.52 34.9219 174.757 34.9219C170.994 34.9219 167.944 37.9724 167.944 41.7353C167.944 45.4982 170.994 48.5486 174.757 48.5486Z" fill="#E6E6E6"/>
<path d="M209.246 48.5486C213.009 48.5486 216.059 45.4982 216.059 41.7353C216.059 37.9724 213.009 34.9219 209.246 34.9219C205.483 34.9219 202.433 37.9724 202.433 41.7353C202.433 45.4982 205.483 48.5486 209.246 48.5486Z" fill="#E6E6E6"/>
<path d="M243.735 48.5486C247.498 48.5486 250.549 45.4982 250.549 41.7353C250.549 37.9724 247.498 34.9219 243.735 34.9219C239.972 34.9219 236.922 37.9724 236.922 41.7353C236.922 45.4982 239.972 48.5486 243.735 48.5486Z" fill="#E6E6E6"/>
<path d="M278.224 48.5486C281.987 48.5486 285.038 45.4982 285.038 41.7353C285.038 37.9724 281.987 34.9219 278.224 34.9219C274.461 34.9219 271.411 37.9724 271.411 41.7353C271.411 45.4982 274.461 48.5486 278.224 48.5486Z" fill="#6C63FF"/>
<path d="M312.713 48.5486C316.476 48.5486 319.527 45.4982 319.527 41.7353C319.527 37.9724 316.476 34.9219 312.713 34.9219C308.95 34.9219 305.9 37.9724 305.9 41.7353C305.9 45.4982 308.95 48.5486 312.713 48.5486Z" fill="#E6E6E6"/>
<path d="M174.757 83.4706C178.52 83.4706 181.57 80.4202 181.57 76.6572C181.57 72.8943 178.52 69.8439 174.757 69.8439C170.994 69.8439 167.944 72.8943 167.944 76.6572C167.944 80.4202 170.994 83.4706 174.757 83.4706Z" fill="#E6E6E6"/>
<path d="M209.246 83.4706C213.009 83.4706 216.059 80.4202 216.059 76.6572C216.059 72.8943 213.009 69.8439 209.246 69.8439C205.483 69.8439 202.433 72.8943 202.433 76.6572C202.433 80.4202 205.483 83.4706 209.246 83.4706Z" fill="#E6E6E6"/>
<path d="M243.735 83.4706C247.498 83.4706 250.549 80.4202 250.549 76.6572C250.549 72.8943 247.498 69.8439 243.735 69.8439C239.972 69.8439 236.922 72.8943 236.922 76.6572C236.922 80.4202 239.972 83.4706 243.735 83.4706Z" fill="#E6E6E6"/>
<path d="M278.224 83.4706C281.987 83.4706 285.038 80.4202 285.038 76.6572C285.038 72.8943 281.987 69.8439 278.224 69.8439C274.461 69.8439 271.411 72.8943 271.411 76.6572C271.411 80.4202 274.461 83.4706 278.224 83.4706Z" fill="#E6E6E6"/>
<path d="M312.713 83.4706C316.476 83.4706 319.527 80.4202 319.527 76.6572C319.527 72.8943 316.476 69.8439 312.713 69.8439C308.95 69.8439 305.9 72.8943 305.9 76.6572C305.9 80.4202 308.95 83.4706 312.713 83.4706Z" fill="#E6E6E6"/>
<path d="M174.757 118.393C178.52 118.393 181.57 115.342 181.57 111.579C181.57 107.816 178.52 104.766 174.757 104.766C170.994 104.766 167.944 107.816 167.944 111.579C167.944 115.342 170.994 118.393 174.757 118.393Z" fill="#E6E6E6"/>
<path d="M209.246 118.393C213.009 118.393 216.059 115.342 216.059 111.579C216.059 107.816 213.009 104.766 209.246 104.766C205.483 104.766 202.433 107.816 202.433 111.579C202.433 115.342 205.483 118.393 209.246 118.393Z" fill="#E6E6E6"/>
<path d="M243.735 118.393C247.498 118.393 250.549 115.342 250.549 111.579C250.549 107.816 247.498 104.766 243.735 104.766C239.972 104.766 236.922 107.816 236.922 111.579C236.922 115.342 239.972 118.393 243.735 118.393Z" fill="#E6E6E6"/>
<path d="M278.224 118.393C281.987 118.393 285.038 115.342 285.038 111.579C285.038 107.816 281.987 104.766 278.224 104.766C274.461 104.766 271.411 107.816 271.411 111.579C271.411 115.342 274.461 118.393 278.224 118.393Z" fill="#E6E6E6"/>
<path d="M312.713 118.393C316.476 118.393 319.527 115.342 319.527 111.579C319.527 107.816 316.476 104.766 312.713 104.766C308.95 104.766 305.9 107.816 305.9 111.579C305.9 115.342 308.95 118.393 312.713 118.393Z" fill="#E6E6E6"/>
<path d="M347.202 118.393C350.965 118.393 354.016 115.342 354.016 111.579C354.016 107.816 350.965 104.766 347.202 104.766C343.439 104.766 340.389 107.816 340.389 111.579C340.389 115.342 343.439 118.393 347.202 118.393Z" fill="#E6E6E6"/>
<path d="M381.691 118.393C385.454 118.393 388.505 115.342 388.505 111.579C388.505 107.816 385.454 104.766 381.691 104.766C377.928 104.766 374.878 107.816 374.878 111.579C374.878 115.342 377.928 118.393 381.691 118.393Z" fill="#E6E6E6"/>
<path d="M416.18 118.393C419.943 118.393 422.994 115.342 422.994 111.579C422.994 107.816 419.943 104.766 416.18 104.766C412.417 104.766 409.367 107.816 409.367 111.579C409.367 115.342 412.417 118.393 416.18 118.393Z" fill="#E6E6E6"/>
<path d="M450.669 118.393C454.432 118.393 457.483 115.342 457.483 111.579C457.483 107.816 454.432 104.766 450.669 104.766C446.907 104.766 443.856 107.816 443.856 111.579C443.856 115.342 446.907 118.393 450.669 118.393Z" fill="#E6E6E6"/>
<path d="M485.158 118.393C488.921 118.393 491.972 115.342 491.972 111.579C491.972 107.816 488.921 104.766 485.158 104.766C481.396 104.766 478.345 107.816 478.345 111.579C478.345 115.342 481.396 118.393 485.158 118.393Z" fill="#E6E6E6"/>
<path d="M312.713 153.314C316.476 153.314 319.527 150.264 319.527 146.501C319.527 142.738 316.476 139.688 312.713 139.688C308.95 139.688 305.9 142.738 305.9 146.501C305.9 150.264 308.95 153.314 312.713 153.314Z" fill="#E6E6E6"/>
<path d="M347.202 153.314C350.965 153.314 354.016 150.264 354.016 146.501C354.016 142.738 350.965 139.688 347.202 139.688C343.439 139.688 340.389 142.738 340.389 146.501C340.389 150.264 343.439 153.314 347.202 153.314Z" fill="#6C63FF"/>
<path d="M381.691 153.314C385.454 153.314 388.505 150.264 388.505 146.501C388.505 142.738 385.454 139.688 381.691 139.688C377.928 139.688 374.878 142.738 374.878 146.501C374.878 150.264 377.928 153.314 381.691 153.314Z" fill="#E6E6E6"/>
<path d="M416.18 153.314C419.943 153.314 422.994 150.264 422.994 146.501C422.994 142.738 419.943 139.688 416.18 139.688C412.417 139.688 409.367 142.738 409.367 146.501C409.367 150.264 412.417 153.314 416.18 153.314Z" fill="#E6E6E6"/>
<path d="M450.669 153.314C454.432 153.314 457.483 150.264 457.483 146.501C457.483 142.738 454.432 139.688 450.669 139.688C446.907 139.688 443.856 142.738 443.856 146.501C443.856 150.264 446.907 153.314 450.669 153.314Z" fill="#E6E6E6"/>
<path d="M485.158 153.314C488.921 153.314 491.972 150.264 491.972 146.501C491.972 142.738 488.921 139.688 485.158 139.688C481.396 139.688 478.345 142.738 478.345 146.501C478.345 150.264 481.396 153.314 485.158 153.314Z" fill="#E6E6E6"/>
<path d="M312.713 188.236C316.476 188.236 319.527 185.186 319.527 181.423C319.527 177.66 316.476 174.61 312.713 174.61C308.95 174.61 305.9 177.66 305.9 181.423C305.9 185.186 308.95 188.236 312.713 188.236Z" fill="#E6E6E6"/>
<path d="M347.202 188.236C350.965 188.236 354.016 185.186 354.016 181.423C354.016 177.66 350.965 174.61 347.202 174.61C343.439 174.61 340.389 177.66 340.389 181.423C340.389 185.186 343.439 188.236 347.202 188.236Z" fill="#E6E6E6"/>
<path d="M381.691 188.236C385.454 188.236 388.505 185.186 388.505 181.423C388.505 177.66 385.454 174.61 381.691 174.61C377.928 174.61 374.878 177.66 374.878 181.423C374.878 185.186 377.928 188.236 381.691 188.236Z" fill="#E6E6E6"/>
<path d="M416.18 188.236C419.943 188.236 422.994 185.186 422.994 181.423C422.994 177.66 419.943 174.61 416.18 174.61C412.417 174.61 409.367 177.66 409.367 181.423C409.367 185.186 412.417 188.236 416.18 188.236Z" fill="#E6E6E6"/>
<path d="M450.669 188.236C454.432 188.236 457.483 185.186 457.483 181.423C457.483 177.66 454.432 174.61 450.669 174.61C446.907 174.61 443.856 177.66 443.856 181.423C443.856 185.186 446.907 188.236 450.669 188.236Z" fill="#6C63FF"/>
<path d="M485.158 188.236C488.921 188.236 491.972 185.186 491.972 181.423C491.972 177.66 488.921 174.61 485.158 174.61C481.396 174.61 478.345 177.66 478.345 181.423C478.345 185.186 481.396 188.236 485.158 188.236Z" fill="#E6E6E6"/>
<path d="M312.713 223.158C316.476 223.158 319.527 220.108 319.527 216.345C319.527 212.582 316.476 209.532 312.713 209.532C308.95 209.532 305.9 212.582 305.9 216.345C305.9 220.108 308.95 223.158 312.713 223.158Z" fill="#E6E6E6"/>
<path d="M347.202 223.158C350.965 223.158 354.016 220.108 354.016 216.345C354.016 212.582 350.965 209.532 347.202 209.532C343.439 209.532 340.389 212.582 340.389 216.345C340.389 220.108 343.439 223.158 347.202 223.158Z" fill="#E6E6E6"/>
<path d="M381.691 223.158C385.454 223.158 388.505 220.108 388.505 216.345C388.505 212.582 385.454 209.532 381.691 209.532C377.928 209.532 374.878 212.582 374.878 216.345C374.878 220.108 377.928 223.158 381.691 223.158Z" fill="#E6E6E6"/>
<path d="M416.18 223.158C419.943 223.158 422.994 220.108 422.994 216.345C422.994 212.582 419.943 209.532 416.18 209.532C412.417 209.532 409.367 212.582 409.367 216.345C409.367 220.108 412.417 223.158 416.18 223.158Z" fill="#E6E6E6"/>
<path d="M450.669 223.158C454.432 223.158 457.483 220.108 457.483 216.345C457.483 212.582 454.432 209.532 450.669 209.532C446.907 209.532 443.856 212.582 443.856 216.345C443.856 220.108 446.907 223.158 450.669 223.158Z" fill="#E6E6E6"/>
<path d="M485.158 223.158C488.921 223.158 491.972 220.108 491.972 216.345C491.972 212.582 488.921 209.532 485.158 209.532C481.396 209.532 478.345 212.582 478.345 216.345C478.345 220.108 481.396 223.158 485.158 223.158Z" fill="#E6E6E6"/>
<path d="M174.757 258.08C178.52 258.08 181.57 255.03 181.57 251.267C181.57 247.504 178.52 244.454 174.757 244.454C170.994 244.454 167.944 247.504 167.944 251.267C167.944 255.03 170.994 258.08 174.757 258.08Z" fill="#E6E6E6"/>
<path d="M209.246 258.08C213.009 258.08 216.059 255.03 216.059 251.267C216.059 247.504 213.009 244.454 209.246 244.454C205.483 244.454 202.433 247.504 202.433 251.267C202.433 255.03 205.483 258.08 209.246 258.08Z" fill="#E6E6E6"/>
<path d="M243.735 258.08C247.498 258.08 250.549 255.03 250.549 251.267C250.549 247.504 247.498 244.454 243.735 244.454C239.972 244.454 236.922 247.504 236.922 251.267C236.922 255.03 239.972 258.08 243.735 258.08Z" fill="#E6E6E6"/>
<path d="M278.224 258.08C281.987 258.08 285.038 255.03 285.038 251.267C285.038 247.504 281.987 244.454 278.224 244.454C274.461 244.454 271.411 247.504 271.411 251.267C271.411 255.03 274.461 258.08 278.224 258.08Z" fill="#E6E6E6"/>
<path d="M312.713 258.08C316.476 258.08 319.527 255.03 319.527 251.267C319.527 247.504 316.476 244.454 312.713 244.454C308.95 244.454 305.9 247.504 305.9 251.267C305.9 255.03 308.95 258.08 312.713 258.08Z" fill="#E6E6E6"/>
<path d="M347.202 258.08C350.965 258.08 354.016 255.03 354.016 251.267C354.016 247.504 350.965 244.454 347.202 244.454C343.439 244.454 340.389 247.504 340.389 251.267C340.389 255.03 343.439 258.08 347.202 258.08Z" fill="#E6E6E6"/>
<path d="M381.691 258.08C385.454 258.08 388.505 255.03 388.505 251.267C388.505 247.504 385.454 244.454 381.691 244.454C377.928 244.454 374.878 247.504 374.878 251.267C374.878 255.03 377.928 258.08 381.691 258.08Z" fill="#E6E6E6"/>
<path d="M416.18 258.08C419.943 258.08 422.994 255.03 422.994 251.267C422.994 247.504 419.943 244.454 416.18 244.454C412.417 244.454 409.367 247.504 409.367 251.267C409.367 255.03 412.417 258.08 416.18 258.08Z" fill="#E6E6E6"/>
<path d="M450.669 258.08C454.432 258.08 457.483 255.03 457.483 251.267C457.483 247.504 454.432 244.454 450.669 244.454C446.907 244.454 443.856 247.504 443.856 251.267C443.856 255.03 446.907 258.08 450.669 258.08Z" fill="#E6E6E6"/>
<path d="M485.158 258.08C488.921 258.08 491.972 255.03 491.972 251.267C491.972 247.504 488.921 244.454 485.158 244.454C481.396 244.454 478.345 247.504 478.345 251.267C478.345 255.03 481.396 258.08 485.158 258.08Z" fill="#E6E6E6"/>
<path d="M174.753 293.001C178.516 293.001 181.566 289.951 181.566 286.188C181.566 282.425 178.516 279.375 174.753 279.375C170.99 279.375 167.94 282.425 167.94 286.188C167.94 289.951 170.99 293.001 174.753 293.001Z" fill="#E6E6E6"/>
<path d="M209.246 293.002C213.009 293.002 216.059 289.952 216.059 286.189C216.059 282.426 213.009 279.376 209.246 279.376C205.483 279.376 202.433 282.426 202.433 286.189C202.433 289.952 205.483 293.002 209.246 293.002Z" fill="#E6E6E6"/>
<path d="M174.753 327.923C178.516 327.923 181.566 324.872 181.566 321.11C181.566 317.347 178.516 314.296 174.753 314.296C170.99 314.296 167.94 317.347 167.94 321.11C167.94 324.872 170.99 327.923 174.753 327.923Z" fill="#E6E6E6"/>
<path d="M209.246 327.924C213.009 327.924 216.059 324.874 216.059 321.111C216.059 317.348 213.009 314.298 209.246 314.298C205.483 314.298 202.433 317.348 202.433 321.111C202.433 324.874 205.483 327.924 209.246 327.924Z" fill="#E6E6E6"/>
</svg>
